<svg id="Layer_1_copy_Group_10_Image" data-name="Layer 1 copy + Group 10 Image" xmlns="http://www.w3.org/2000/svg" viewBox="0 0 25.75 26.5"><defs><style>.cls-1,.cls-3{fill:none;stroke-miterlimit:10;}.cls-1{stroke:#625859;}.cls-2{fill:#62585a;}.cls-2,.cls-3{fill-rule:evenodd;}.cls-3{stroke:#62585a;}</style></defs><path class="cls-1" d="M28.51,17.89V10.5a3.75,3.75,0,0,0-3.75-3.75H12A3.75,3.75,0,0,0,8.25,10.5V26.24A3.74,3.74,0,0,0,12,30h8.14a7.5,7.5,0,1,0,8.37-12.1Z" transform="translate(-7.75 -6.25)"/><path class="cls-2" d="M13.47,16.5H18a.73.73,0,0,1,.73.73v.05A.73.73,0,0,1,18,18H13.47a.73.73,0,0,1-.73-.73v-.05A.73.73,0,0,1,13.47,16.5Z" transform="translate(-7.75 -6.25)"/><path class="cls-2" d="M13.47,12.74h9a.73.73,0,0,1,.73.73v0a.73.73,0,0,1-.73.72h-9a.73.73,0,0,1-.73-.72v0A.73.73,0,0,1,13.47,12.74Z" transform="translate(-7.75 -6.25)"/><path class="cls-2" d="M25.47,27h.07a.7.7,0,0,1,.7.71v.06a.7.7,0,0,1-.7.71h-.07a.71.71,0,0,1-.71-.71v-.06A.71.71,0,0,1,25.47,27Z" transform="translate(-7.75 -6.25)"/><path class="cls-2" d="M25.47,21h.07a.7.7,0,0,1,.7.71v3.85a.7.7,0,0,1-.7.71h-.07a.71.71,0,0,1-.71-.71V21.7A.71.71,0,0,1,25.47,21Z" transform="translate(-7.75 -6.25)"/><path class="cls-3" d="M25.5,17.25a7.5,7.5,0,1,1-7.5,7.5A7.5,7.5,0,0,1,25.5,17.25Z" transform="translate(-7.75 -6.25)"/></svg>